<svg width="245" height="295" viewBox="0 0 245 295" fill="none" xmlns="http://www.w3.org/2000/svg">
<path d="M39.8906 232.017H244" stroke="#3C3C3C"/>
<path d="M54.4697 240.303V232.016" stroke="#3C3C3C"/>
<path d="M53.3472 243.226V242.482H55.0872V243.226H53.3472ZM57.7272 242.482V243.226H55.9272V242.482H57.7272ZM59.5752 244.33H55.9272V243.766H58.5912V241.942H55.9272V241.27H55.0872V241.942H52.5192V243.766H55.0872V244.33H51.6072V244.942H59.5752V244.33ZM51.5592 243.514C51.1872 242.926 50.3592 242.11 49.6272 241.558L48.9432 242.062C49.6752 242.638 50.4792 243.466 50.8392 244.066L51.5592 243.514ZM53.4552 248.17H57.6552V248.782H53.4552V248.17ZM53.4552 247.078H57.6552V247.678H53.4552V247.078ZM53.4552 245.998H57.6552V246.586H53.4552V245.998ZM54.3072 249.298H56.5872L56.0952 249.646C56.9952 250.03 57.9672 250.522 58.5312 250.906L59.2992 250.486C58.7112 250.138 57.7152 249.658 56.8152 249.298H58.5192V245.494H52.6272V249.298H54.2592C53.7312 249.754 52.8552 250.162 52.0752 250.45C52.2312 250.558 52.5072 250.786 52.6752 250.93C52.0272 250.714 51.5352 250.354 51.1992 249.826V245.962H48.8352V246.802H50.3592V249.91C49.8192 250.414 49.2312 250.918 48.7272 251.29L49.1952 252.118C49.7832 251.59 50.3232 251.074 50.8512 250.57C51.5832 251.494 52.6752 251.926 54.2352 251.986C55.5792 252.046 58.1232 252.022 59.4552 251.962C59.5032 251.71 59.6352 251.314 59.7432 251.11C58.3032 251.218 55.5432 251.254 54.2232 251.194C53.6832 251.17 53.1912 251.098 52.7592 250.966C53.5392 250.618 54.4632 250.078 55.0512 249.55L54.3072 249.298ZM54.1512 259.818C53.8872 259.134 53.1912 258.174 52.5072 257.478L51.7992 257.85C52.0992 258.174 52.4112 258.546 52.6752 258.942C51.9912 259.11 51.3192 259.278 50.6952 259.434L50.5872 256.89C51.7032 256.662 52.9272 256.326 53.8272 255.954L53.2152 255.306C52.5552 255.63 51.4632 255.966 50.4672 256.218L49.6992 256.002L49.8192 259.638C49.4352 259.734 49.0752 259.818 48.7632 259.89L49.0032 260.742C50.1312 260.442 51.6432 260.034 53.0952 259.638C53.2152 259.854 53.3112 260.046 53.3712 260.226L54.1512 259.818ZM53.7912 261.954V263.13H51.1872V261.954H53.7912ZM57.3432 263.13H54.6312V261.954H57.3432V263.13ZM54.6312 265.038V263.814H57.3432V265.038H54.6312ZM51.1872 265.038V263.814H53.7912V265.038H51.1872ZM50.3472 266.214H51.1872V265.782H57.3432V266.166H58.2192V261.222H50.3472V266.214ZM54.2472 255.93V256.686H55.6512C55.4832 258.294 55.0392 259.554 53.4672 260.238C53.6592 260.382 53.8992 260.682 53.9832 260.874C55.7592 260.058 56.2872 258.594 56.4912 256.686H58.3152C58.2192 258.69 58.1112 259.458 57.9432 259.65C57.8472 259.77 57.7392 259.782 57.5592 259.77C57.3792 259.77 56.8872 259.77 56.3712 259.722C56.5032 259.95 56.5872 260.262 56.6112 260.514C57.1392 260.538 57.6672 260.55 57.9552 260.526C58.2672 260.49 58.4832 260.406 58.6632 260.19C58.9632 259.854 59.0712 258.906 59.1912 256.302C59.2032 256.17 59.2032 255.93 59.2032 255.93H54.2472ZM54.6552 269.438H53.7072V273.29C53.7072 274.682 52.8792 277.958 48.8592 279.494C49.0632 279.674 49.3512 280.046 49.4712 280.226C52.8552 278.834 53.9472 276.182 54.1752 275.018C54.4152 276.17 55.5792 278.918 59.0472 280.226C59.1792 279.986 59.4432 279.602 59.6352 279.41C55.5072 277.946 54.6552 274.658 54.6552 273.29V269.438ZM58.1592 271.658C57.7632 272.702 57.0072 274.142 56.4192 275.018L57.1632 275.366C57.7752 274.514 58.5432 273.158 59.1192 272.042L58.1592 271.658ZM50.6832 271.682C50.4912 273.014 50.0832 274.31 49.1232 275.03L49.8912 275.558C50.9592 274.742 51.3552 273.29 51.5712 271.862L50.6832 271.682ZM53.3112 289.834C53.0712 289.558 52.0512 288.502 51.6792 288.19V287.458H53.1792V286.618H51.6792V284.59C52.2432 284.458 52.7712 284.29 53.2032 284.11L52.5792 283.438C51.7032 283.834 50.1312 284.182 48.7872 284.398C48.8952 284.602 49.0152 284.89 49.0632 285.094C49.6152 285.01 50.2272 284.914 50.8152 284.794V286.618H48.8592V287.458H50.6952C50.2152 288.826 49.3872 290.374 48.6312 291.214C48.7752 291.43 48.9912 291.778 49.0752 292.03C49.6872 291.298 50.3232 290.098 50.8152 288.886V294.19H51.6792V289.054C52.0872 289.546 52.5792 290.206 52.7712 290.542L53.3112 289.834ZM54.2352 290.05V289.09H55.9152V290.05H54.2352ZM54.2352 287.566H55.9152V288.502H54.2352V287.566ZM58.4952 287.566V288.502H56.7672V287.566H58.4952ZM58.4952 290.05H56.7672V289.09H58.4952V290.05ZM56.7672 293.23V292.294H59.3592V291.574H56.7672V290.722H59.2992V286.894H56.7672V286.09H59.5392V285.358H56.7672V284.482C57.7992 284.386 58.7592 284.254 59.5152 284.086L58.9752 283.414C57.6312 283.714 55.1472 283.918 53.1552 284.002C53.2392 284.17 53.3472 284.482 53.3592 284.674C54.1632 284.65 55.0512 284.614 55.9152 284.554V285.358H52.9392V286.09H55.9152V286.894H53.4432V290.722H55.9152V291.574H53.3112V292.294H55.9152V293.23H52.6272V293.974H59.7672V293.23H56.7672Z" fill="#3C3C3C"/>
<path d="M83.6284 240.303V232.016" stroke="#3C3C3C"/>
<path d="M85.6257 245.626L85.7577 246.298C86.5137 246.226 87.3657 246.166 88.2657 246.07C88.3377 246.25 88.3857 246.418 88.4097 246.562L88.9857 246.286C88.9017 245.83 88.5657 245.11 88.2417 244.558L87.6897 244.786C87.8097 244.99 87.9297 245.23 88.0377 245.47L86.7657 245.554C87.3417 244.762 87.9777 243.73 88.4817 242.878L87.8337 242.566C87.6417 242.986 87.3777 243.478 87.0897 243.97C86.9457 243.802 86.7537 243.622 86.5617 243.43C86.8617 242.95 87.2457 242.254 87.5457 241.654L86.8497 241.378C86.6817 241.87 86.3817 242.542 86.1177 243.058C86.0217 242.974 85.9257 242.914 85.8417 242.842L85.4697 243.334C85.9257 243.682 86.4297 244.162 86.7297 244.546C86.4897 244.942 86.2377 245.302 86.0097 245.602L85.6257 245.626ZM81.4857 245.746L81.6177 246.454C82.3497 246.382 83.1777 246.298 84.0417 246.226C84.0897 246.37 84.1137 246.514 84.1377 246.634L84.7257 246.382C84.6417 245.926 84.3657 245.194 84.0537 244.654L83.5017 244.858C83.6217 245.086 83.7297 245.338 83.8257 245.602L82.6497 245.674C83.2617 244.858 83.9337 243.766 84.4497 242.878L83.8017 242.566C83.6097 242.986 83.3457 243.478 83.0577 243.97C82.9257 243.802 82.7457 243.622 82.5417 243.442C82.8417 242.95 83.2017 242.242 83.5137 241.654L82.8177 241.378C82.6497 241.87 82.3617 242.542 82.0977 243.058C82.0017 242.986 81.9057 242.914 81.8097 242.842L81.4377 243.334C81.8817 243.682 82.3977 244.174 82.7097 244.558C82.4337 244.978 82.1577 245.386 81.9057 245.722L81.4857 245.746ZM87.2697 248.266C87.0417 248.794 86.7177 249.286 86.3217 249.73C86.1537 249.262 86.0097 248.71 85.8897 248.074H88.8177V247.354H87.8337L88.0857 247.09C87.8097 246.814 87.2697 246.466 86.8137 246.226L86.3937 246.658C86.7297 246.838 87.1137 247.114 87.4017 247.354H85.7697C85.5177 245.686 85.3857 243.61 85.4097 241.27H84.6057C84.6177 243.526 84.7257 245.614 84.9897 247.354H81.6297L81.6777 247.282C81.4977 246.946 80.6817 245.638 80.3697 245.206V244.666H81.6657V243.85H80.3697V241.258H79.5657V243.85H78.0537V244.666H79.4817C79.1577 246.286 78.4857 248.182 77.8017 249.178C77.9457 249.37 78.1497 249.706 78.2457 249.922C78.7377 249.154 79.2057 247.93 79.5657 246.658V252.202H80.3697V246.214C80.6937 246.814 81.0657 247.546 81.2217 247.93L81.5937 247.402V248.074H82.4457C82.3257 249.502 82.0017 250.846 80.9097 251.602C81.1017 251.734 81.3297 252.01 81.4497 252.19C82.3257 251.554 82.7697 250.618 83.0217 249.55C83.5257 249.898 84.0297 250.282 84.3177 250.558L84.8217 249.946C84.4497 249.61 83.7537 249.13 83.1657 248.77C83.1897 248.542 83.2257 248.314 83.2377 248.074H85.1097C85.2657 248.938 85.4697 249.694 85.7217 250.318C85.0977 250.858 84.3297 251.302 83.4777 251.638C83.6337 251.782 83.8497 252.058 83.9577 252.202C84.7257 251.89 85.4337 251.482 86.0457 251.002C86.5017 251.794 87.0657 252.238 87.7857 252.238C88.5777 252.238 88.8417 251.842 88.9857 250.498C88.8057 250.426 88.5297 250.27 88.3737 250.102C88.3137 251.182 88.1817 251.47 87.8337 251.47C87.3777 251.47 86.9817 251.122 86.6457 250.486C87.2217 249.922 87.7017 249.274 88.0377 248.554L87.2697 248.266ZM88.4217 256.842C88.2177 256.458 87.7497 255.918 87.3057 255.534L86.7297 255.87C87.1617 256.278 87.6177 256.842 87.8097 257.226L88.4217 256.842ZM81.5817 260.778C81.4017 260.49 80.6457 259.362 80.3817 258.99V258.63H81.4377V257.79H80.3817V255.258H79.5537V257.79H78.1617V258.63H79.5537V258.702C79.2177 260.31 78.5337 262.182 77.8257 263.19C77.9817 263.394 78.1857 263.778 78.2817 264.006C78.7377 263.286 79.1937 262.182 79.5537 260.994V266.202H80.3817V260.058C80.6457 260.55 80.9457 261.126 81.0777 261.426L81.5817 260.778ZM84.8217 264.942V261.774H85.4817V260.982H84.8217V258.93H84.1017V260.982H83.2137V258.93H82.5177V260.982H81.7857V261.774H82.5057C82.4457 262.998 82.2057 264.282 81.2577 265.326C81.4497 265.434 81.7137 265.638 81.8457 265.794C82.8777 264.618 83.1417 263.19 83.2017 261.774H84.1017V264.942H84.8217ZM87.9297 259.278C87.6897 260.454 87.3177 261.534 86.8497 262.482C86.6577 261.342 86.4777 259.914 86.3937 258.33H88.7337V257.514H86.3457C86.3217 256.794 86.3097 256.038 86.3097 255.27H85.4817C85.4937 256.038 85.5057 256.782 85.5417 257.514H81.8577V258.33H85.5897C85.6977 260.334 85.9257 262.146 86.2377 263.526C85.6737 264.366 85.0017 265.062 84.1737 265.626C84.3657 265.746 84.6777 265.998 84.8097 266.13C85.4337 265.662 85.9977 265.086 86.5017 264.45C86.8497 265.53 87.3057 266.178 87.8577 266.178C88.5417 266.178 88.7937 265.638 88.9137 264.006C88.7097 263.922 88.4457 263.766 88.2777 263.574C88.2297 264.798 88.1217 265.362 87.9417 265.362C87.6537 265.362 87.3417 264.702 87.0777 263.586C87.7977 262.41 88.3257 261.006 88.6857 259.398L87.9297 259.278ZM81.9777 269.678H78.5217V270.398H81.9777V269.678ZM82.4217 271.25H77.8977V271.982H82.4217V271.25ZM81.2217 276.794V278.81H79.2177V276.794H81.2217ZM82.0017 276.062H78.4377V280.082H79.2177V279.53H82.0017V276.062ZM78.4617 275.174H82.0137V274.454H78.4617V275.174ZM78.4617 273.578H82.0137V272.87H78.4617V273.578ZM84.2097 270.434H86.2617V272.57C86.2617 273.422 86.4777 273.65 87.2097 273.65H88.0377C88.6737 273.65 88.8897 273.302 88.9617 271.898C88.7337 271.85 88.3857 271.718 88.2177 271.574C88.1937 272.726 88.1457 272.882 87.9297 272.882H87.3297C87.1377 272.882 87.1017 272.834 87.1017 272.57V269.642H83.3577V271.082C83.3577 271.91 83.1777 272.906 82.0257 273.638C82.2057 273.758 82.5417 274.07 82.6737 274.226C83.9457 273.386 84.2097 272.126 84.2097 271.094V270.434ZM87.6657 274.382L87.5097 274.418H82.5777V275.234H87.1137C86.7537 276.158 86.2137 276.938 85.5417 277.574C84.8697 276.914 84.3417 276.134 83.9937 275.258L83.2017 275.498C83.6097 276.506 84.1737 277.382 84.8817 278.114C84.0417 278.738 83.0697 279.17 82.0497 279.434C82.2177 279.614 82.4457 279.998 82.5297 280.214C83.6217 279.89 84.6537 279.41 85.5417 278.726C86.3577 279.386 87.3057 279.878 88.3977 280.202C88.5177 279.986 88.7817 279.626 88.9737 279.446C87.9177 279.182 86.9937 278.738 86.2137 278.15C87.1257 277.25 87.8337 276.086 88.2417 274.61L87.6657 274.382ZM83.0577 286.15H83.8737V285.166H86.1177V286.15H86.9577V285.166H88.8417V284.386H86.9577V283.366H86.1177V284.386H83.8737V283.366H83.0577V284.386H81.1137V285.166H83.0577V286.15ZM80.2137 283.33C79.6377 285.178 78.6897 287.002 77.6577 288.202C77.8017 288.418 78.0417 288.886 78.1257 289.102C78.5217 288.634 78.8937 288.094 79.2537 287.494V294.214H80.1057V285.898C80.4657 285.142 80.7777 284.35 81.0417 283.558L80.2137 283.33ZM86.0457 291.61V290.578H87.8097V291.61H86.0457ZM83.6337 291.61V290.578H85.3257V291.61H83.6337ZM85.3257 288.91V289.954H83.6337V288.91H85.3257ZM87.8097 288.91V289.954H86.0457V288.91H87.8097ZM88.5897 288.226H82.8657V294.214H83.6337V292.246H85.3257V294.142H86.0457V292.246H87.8097V293.35C87.8097 293.482 87.7857 293.506 87.6417 293.518C87.4977 293.53 87.0777 293.53 86.5617 293.518C86.6577 293.722 86.7537 294.022 86.7897 294.214C87.4977 294.226 87.9537 294.214 88.2417 294.082C88.5177 293.962 88.5897 293.746 88.5897 293.35V288.226ZM88.8897 286.558H81.3297V289.126C81.3297 290.482 81.2337 292.33 80.3817 293.662C80.5737 293.77 80.8977 294.058 81.0297 294.214C81.9777 292.774 82.1337 290.626 82.1337 289.138V287.35H88.8897V286.558Z" fill="#3C3C3C"/>
<path d="M112.787 240.303V232.017" stroke="#3C3C3C"/>
<path d="M117.785 242.819H112.973V241.247H112.085V242.819H107.333V243.683H117.785V242.819ZM113.969 244.547C115.109 245.339 116.477 246.491 117.113 247.271L117.893 246.659C117.209 245.867 115.805 244.763 114.677 244.007L113.969 244.547ZM110.393 244.055C109.661 245.063 108.413 246.059 107.237 246.683C107.465 246.839 107.801 247.199 107.969 247.391C109.121 246.671 110.465 245.543 111.293 244.403L110.393 244.055ZM114.281 246.107C113.885 247.187 113.309 248.075 112.577 248.807C111.845 248.063 111.269 247.187 110.873 246.167L110.021 246.431C110.489 247.595 111.113 248.579 111.893 249.407C110.645 250.379 109.013 251.015 107.069 251.423C107.261 251.627 107.549 252.047 107.633 252.263C109.577 251.771 111.233 251.075 112.553 250.031C113.825 251.099 115.469 251.831 117.497 252.215C117.617 251.975 117.881 251.567 118.085 251.375C116.105 251.051 114.485 250.391 113.249 249.407C114.077 248.591 114.737 247.595 115.205 246.371L114.281 246.107ZM113.777 258.943V259.999H111.761V258.943H113.777ZM116.669 259.999H114.581V258.943H116.669V259.999ZM114.581 261.751V260.659H116.669V261.751H114.581ZM111.761 261.751V260.659H113.777V261.751H111.761ZM111.761 262.435H113.777V264.379H114.581V262.435H116.669V263.527C116.669 263.683 116.621 263.731 116.465 263.731C116.321 263.731 115.805 263.743 115.241 263.719C115.349 263.923 115.457 264.235 115.493 264.451C116.297 264.451 116.801 264.439 117.113 264.319C117.425 264.187 117.521 263.971 117.521 263.539V258.259H116.009C115.745 258.115 115.433 257.947 115.085 257.779C115.973 257.335 116.873 256.735 117.509 256.135L116.957 255.715L116.789 255.763H110.933V256.471H115.937C115.457 256.819 114.869 257.167 114.293 257.419C113.729 257.179 113.141 256.939 112.625 256.759L112.061 257.263C112.781 257.527 113.633 257.911 114.341 258.259H110.921V264.427H111.761V262.435ZM109.949 257.467C109.565 256.879 108.677 256.075 107.921 255.535L107.297 256.087C108.053 256.651 108.917 257.491 109.289 258.079L109.949 257.467ZM109.685 259.963H107.093V260.803H108.821V263.887C108.209 264.379 107.525 264.883 106.949 265.243L107.381 266.107C108.065 265.603 108.701 265.087 109.313 264.559C110.045 265.507 111.125 265.927 112.697 265.987C114.017 266.047 116.561 266.023 117.893 265.963C117.941 265.699 118.073 265.291 118.169 265.087C116.741 265.183 114.005 265.219 112.697 265.159C111.293 265.111 110.261 264.715 109.685 263.815V259.963ZM115.841 277.719H112.961V276.819H115.841V277.719ZM112.961 275.271H115.841V276.111H112.961V275.271ZM109.493 273.147V272.283H112.073V273.147H109.493ZM115.649 272.283V273.147H112.961V272.283H115.649ZM117.965 276.111H116.729V274.611H112.961V273.771H116.537V271.659H112.961V270.963H117.737V270.231H112.961V269.271H112.073V270.231H107.393V270.963H112.073V271.659H108.641V273.771H112.073V274.611H108.305V275.271H112.073V276.111H107.165V276.819H112.073V277.719H108.197V278.403H112.073V279.231C112.073 279.435 112.001 279.507 111.773 279.519C111.569 279.519 110.849 279.531 110.129 279.507C110.249 279.711 110.393 280.035 110.441 280.263C111.437 280.263 112.061 280.251 112.433 280.119C112.793 279.987 112.961 279.783 112.961 279.231V278.403H115.841V278.943H116.729V276.819H117.965V276.111ZM113.729 286.319H116.249C115.997 287.915 115.601 289.235 114.989 290.327C114.389 289.187 113.969 287.831 113.705 286.367L113.729 286.319ZM111.005 292.031H108.437V289.451H111.005V292.031ZM118.025 286.319V285.467H114.005C114.221 284.807 114.401 284.111 114.533 283.403L113.645 283.259C113.261 285.287 112.589 287.219 111.557 288.431C111.629 288.479 111.725 288.539 111.821 288.611H110.177V286.427H112.325V285.587H110.177V283.259H109.301V285.587H107.105V286.427H109.301V288.611H107.609V293.711H108.437V292.871H111.857V288.635C112.037 288.767 112.217 288.911 112.313 289.007C112.625 288.611 112.901 288.155 113.153 287.651C113.465 288.947 113.897 290.123 114.449 291.131C113.681 292.139 112.661 292.895 111.281 293.447C111.437 293.627 111.701 294.023 111.797 294.239C113.117 293.651 114.137 292.895 114.929 291.923C115.601 292.919 116.441 293.699 117.497 294.227C117.629 293.987 117.905 293.651 118.109 293.471C117.017 292.979 116.165 292.187 115.481 291.167C116.297 289.895 116.825 288.311 117.149 286.319H118.025Z" fill="#3C3C3C"/>
<path d="M141.945 240.303V232.016" stroke="#3C3C3C"/>
<path d="M139.491 241.45C138.699 243.334 137.379 245.146 136.011 246.286C136.179 246.502 136.455 246.97 136.551 247.186C137.079 246.706 137.607 246.13 138.111 245.494V252.19H139.011V244.234C139.527 243.442 139.983 242.59 140.343 241.738L139.491 241.45ZM143.235 251.206C142.575 251.206 142.443 251.062 142.443 250.39V246.91C143.931 246.118 145.539 245.206 146.667 244.294L146.031 243.526C145.143 244.33 143.775 245.266 142.443 246.01V241.546H141.543V250.378C141.543 251.686 141.927 252.046 143.175 252.046H145.635C146.871 252.046 147.135 251.362 147.279 249.418C147.015 249.358 146.655 249.19 146.427 249.034C146.343 250.774 146.235 251.206 145.575 251.206H143.235ZM142.395 257.346C142.239 257.562 142.035 257.778 141.807 257.982C141.543 257.814 141.267 257.658 141.015 257.526L140.571 257.898C140.811 258.03 141.063 258.198 141.315 258.354C140.955 258.618 140.571 258.846 140.187 259.026C140.343 259.122 140.595 259.35 140.703 259.47C141.075 259.266 141.459 259.014 141.831 258.726C142.131 258.942 142.383 259.158 142.563 259.35L143.031 258.918C142.851 258.738 142.599 258.522 142.311 258.318C142.575 258.066 142.827 257.802 143.019 257.538L142.395 257.346ZM142.911 256.818C142.743 256.65 142.503 256.47 142.227 256.278C142.479 256.05 142.707 255.81 142.887 255.57L142.263 255.39C142.119 255.582 141.939 255.774 141.735 255.954C141.459 255.786 141.183 255.63 140.931 255.51L140.487 255.882C140.727 256.014 140.991 256.17 141.243 256.326C140.907 256.566 140.535 256.782 140.163 256.962C140.295 257.07 140.559 257.274 140.667 257.394C141.015 257.202 141.399 256.95 141.759 256.674C142.035 256.878 142.275 257.082 142.443 257.262L142.911 256.818ZM137.499 260.214H145.935V261.702H146.811V259.53H145.875C145.983 258.462 146.091 256.914 146.139 255.714H143.355V256.326H145.275L145.239 256.986H143.403V257.598H145.203L145.143 258.246H143.343V258.858H145.095C145.071 259.098 145.047 259.326 145.023 259.53H138.435L138.399 258.858H140.103V258.246H138.363L138.315 257.598H140.055V256.986H138.279L138.243 256.458C138.867 256.314 139.599 256.11 140.151 255.87L139.683 255.366C139.263 255.534 138.579 255.774 137.991 255.942L137.367 255.786L137.607 259.53H136.659V261.702H137.499V260.214ZM146.931 263.13H142.143V262.986C143.079 262.578 144.123 262.014 144.855 261.426L144.327 260.982L144.135 261.03H138.603V261.702H143.235C142.803 261.978 142.287 262.254 141.795 262.47H141.279V263.13H136.503V263.862H141.279V265.266C141.279 265.422 141.219 265.458 141.027 265.47C140.835 265.482 140.163 265.494 139.431 265.47C139.551 265.674 139.683 265.986 139.731 266.214C140.679 266.214 141.291 266.214 141.663 266.082C142.035 265.974 142.143 265.746 142.143 265.29V263.862H146.931V263.13ZM140.739 275.378L140.619 274.586L139.227 275.018V272.57H140.451V271.706H139.227V269.27H138.399V271.706H137.475C137.559 271.178 137.643 270.626 137.703 270.086L136.923 269.954C136.779 271.418 136.551 272.93 136.095 273.95C136.287 274.022 136.623 274.238 136.779 274.346C136.995 273.854 137.163 273.242 137.307 272.57H138.399V275.246C137.559 275.51 136.791 275.714 136.179 275.882L136.419 276.734C137.007 276.554 137.691 276.338 138.399 276.122V280.226H139.227V275.858L140.739 275.378ZM142.407 271.262C142.611 270.674 142.791 270.062 142.935 269.426L142.119 269.258C141.723 271.07 141.003 272.798 140.019 273.866C140.199 273.986 140.559 274.238 140.703 274.382C141.219 273.77 141.675 272.978 142.071 272.102H143.103C142.551 274.022 141.483 276.026 140.211 277.022C140.463 277.154 140.751 277.358 140.919 277.538C142.227 276.398 143.331 274.154 143.871 272.102H144.855C144.231 275.114 142.935 278.066 140.967 279.482C141.231 279.614 141.543 279.83 141.711 280.022C143.703 278.438 145.023 275.246 145.623 272.102H146.199C145.959 276.854 145.695 278.63 145.311 279.05C145.179 279.206 145.059 279.254 144.867 279.254C144.627 279.254 144.147 279.242 143.607 279.194C143.763 279.434 143.847 279.806 143.859 280.07C144.387 280.106 144.903 280.118 145.227 280.07C145.587 280.034 145.827 279.926 146.055 279.614C146.535 279.014 146.799 277.154 147.063 271.718C147.075 271.61 147.075 271.262 147.075 271.262H142.407ZM139.455 285.682V287.182H140.247V285.682H141.663V284.986H138.063V284.806V284.374C139.191 284.278 140.463 284.098 141.351 283.846L140.751 283.294C140.103 283.486 139.011 283.654 137.979 283.786L137.271 283.582V284.77C137.271 285.538 137.127 286.486 136.275 287.266C136.467 287.386 136.743 287.65 136.875 287.842C137.559 287.206 137.871 286.402 137.991 285.682H139.455ZM138.735 290.842H144.783V291.706H138.735V290.842ZM138.735 289.426H144.783V290.266H138.735V289.426ZM138.735 288.022H144.783V288.85H138.735V288.022ZM137.883 292.306H145.671V287.422H137.883V292.306ZM139.911 292.426C139.059 292.906 137.619 293.326 136.395 293.578C136.599 293.734 136.899 294.082 137.055 294.25C138.243 293.926 139.743 293.374 140.715 292.81L139.911 292.426ZM142.707 292.918C144.015 293.35 145.311 293.854 146.055 294.238L147.039 293.794C146.163 293.398 144.735 292.882 143.439 292.462L142.707 292.918ZM142.923 284.986C142.935 284.89 142.935 284.794 142.935 284.71V284.386C144.147 284.29 145.515 284.122 146.451 283.87L145.851 283.306C145.143 283.51 143.931 283.678 142.827 283.786L142.143 283.618V284.686C142.143 285.346 141.963 286.114 140.991 286.75C141.183 286.87 141.435 287.146 141.543 287.338C142.263 286.858 142.623 286.258 142.791 285.682H144.459V287.206H145.263V285.682H147.039V284.986H142.923Z" fill="#3C3C3C"/>
<path d="M171.103 240.303V232.016" stroke="#3C3C3C"/>
<path d="M170.401 246.586H171.265V243.85H175.093V245.53H175.921V243.202H171.265V242.47H175.225V241.774H166.513V242.47H170.401V243.202H165.829V245.53H166.633V243.85H170.401V246.586ZM171.901 246.274H174.757V245.71H171.901V246.274ZM171.901 244.498V245.05H174.469V244.498H171.901ZM169.789 244.498H167.257V245.05H169.789V244.498ZM167.029 246.274H169.789V245.71H167.029V246.274ZM167.701 249.886V249.07H170.365V249.886H167.701ZM170.365 247.642V248.47H167.701V247.642H170.365ZM174.073 248.47H171.217V247.642H174.073V248.47ZM171.217 249.886V249.07H174.073V249.886H171.217ZM172.117 251.398C171.361 251.398 171.217 251.326 171.217 250.918V250.534H174.937V246.994H166.849V251.158H167.701V250.534H170.365V250.918C170.365 251.878 170.737 252.106 172.081 252.106H174.841C175.969 252.106 176.245 251.746 176.377 250.294C176.125 250.246 175.801 250.126 175.597 249.994C175.537 251.194 175.417 251.398 174.781 251.398H172.117ZM175.885 257.07V256.362H168.553C168.709 256.074 168.841 255.786 168.961 255.486L168.037 255.246C167.485 256.674 166.501 258.018 165.385 258.87C165.613 259.014 166.021 259.278 166.213 259.446C166.897 258.834 167.581 258.006 168.157 257.07H175.885ZM174.985 258.51V257.838H167.857V258.51H174.985ZM169.909 260.262H169.069V262.362H165.865V263.082H168.469C167.725 263.994 166.561 264.882 165.553 265.326C165.733 265.482 165.985 265.782 166.117 265.974C167.125 265.446 168.277 264.498 169.069 263.478V266.202H169.909V263.982C170.821 264.534 171.805 265.218 172.333 265.698L172.921 265.134C172.261 264.57 170.953 263.742 169.945 263.19L169.909 263.226V263.082H173.053V262.362H169.909V260.262ZM166.681 260.766C167.065 261.222 167.461 261.858 167.605 262.29L168.301 261.978C168.157 261.546 167.749 260.922 167.353 260.466L166.681 260.766ZM171.661 260.406C171.409 260.886 170.929 261.594 170.569 262.038L171.145 262.302C171.529 261.894 172.021 261.27 172.441 260.706L171.661 260.406ZM166.633 259.302V260.01H173.437C173.545 263.538 173.857 266.202 175.405 266.202C176.125 266.202 176.317 265.626 176.389 264.138C176.197 264.03 175.945 263.802 175.789 263.622C175.765 264.654 175.693 265.338 175.465 265.338C174.601 265.338 174.349 262.41 174.301 259.302H166.633ZM174.301 273.866V273.062H171.157C171.217 272.474 171.241 271.85 171.265 271.178H170.437C170.413 271.85 170.389 272.486 170.329 273.062H167.437V273.866H170.221C169.921 275.594 169.213 276.818 167.293 277.55C167.485 277.706 167.725 278.018 167.821 278.234C169.645 277.49 170.485 276.326 170.881 274.742C171.409 276.422 172.333 277.574 173.869 278.186C173.989 277.958 174.229 277.634 174.421 277.466C172.777 276.902 171.853 275.654 171.421 273.866H174.301ZM166.777 278.822V270.674H174.961V278.822H166.777ZM165.889 269.822V280.214H166.777V279.674H174.961V280.214H175.873V269.822H165.889ZM168.385 291.718C167.653 292.366 166.501 293.002 165.445 293.422C165.649 293.542 165.973 293.854 166.129 294.022C167.149 293.542 168.385 292.786 169.201 292.03L168.385 291.718ZM176.221 291.382C175.597 290.734 174.337 289.882 173.305 289.318L172.693 289.786C173.101 290.026 173.545 290.302 173.965 290.602C172.561 290.626 171.133 290.65 169.813 290.674C170.905 290.002 172.117 289.15 173.053 288.382L172.261 287.938C171.613 288.538 170.665 289.27 169.729 289.906C169.441 289.702 169.093 289.486 168.733 289.27C169.321 288.85 170.017 288.274 170.605 287.746H176.125V287.038H171.289V286.27H174.889V285.586H171.289V284.818H175.585V284.134H171.289V283.246H170.413V284.134H166.285V284.818H170.413V285.586H166.945V286.27H170.413V287.038H165.649V287.746H169.429C169.033 288.142 168.541 288.586 168.109 288.91C167.833 288.778 167.569 288.646 167.329 288.526L166.753 289.03C167.497 289.402 168.397 289.93 168.997 290.374C168.829 290.494 168.649 290.59 168.481 290.698C167.425 290.71 166.465 290.722 165.685 290.722L165.757 291.478C167.017 291.454 168.649 291.43 170.413 291.382V294.202H171.277V291.358C172.453 291.334 173.665 291.298 174.853 291.262C175.141 291.49 175.381 291.718 175.561 291.91L176.221 291.382ZM172.465 292.186C173.497 292.666 174.757 293.422 175.381 293.962L176.077 293.434C175.417 292.882 174.121 292.15 173.125 291.718L172.465 292.186Z" fill="#3C3C3C"/>
<path d="M200.262 240.303V232.016" stroke="#3C3C3C"/>
<path d="M197.699 243.154C197.519 243.91 197.183 245.05 196.895 245.734L197.411 245.95C197.735 245.302 198.095 244.234 198.431 243.382L197.699 243.154ZM195.107 243.742C195.095 244.846 194.939 245.998 194.471 246.634L195.023 246.994C195.551 246.25 195.707 244.99 195.719 243.838L195.107 243.742ZM198.083 250.03C197.891 249.73 197.075 248.542 196.739 248.086C196.847 247.234 196.871 246.358 196.871 245.482V241.426H196.091V245.482C196.091 247.642 195.935 249.874 194.471 251.626C194.651 251.758 194.939 252.034 195.059 252.226C195.863 251.278 196.319 250.21 196.571 249.082C196.907 249.61 197.303 250.27 197.471 250.63L198.083 250.03ZM199.379 243.874H201.095V244.522L199.631 244.63L199.679 245.122L201.095 245.014V245.254C201.095 245.89 201.323 246.034 202.187 246.034H203.771C204.359 246.034 204.551 245.842 204.611 245.146C204.431 245.11 204.179 245.038 204.035 244.966C203.999 245.458 203.939 245.53 203.663 245.53H202.259C201.875 245.53 201.803 245.494 201.803 245.254V244.954L203.783 244.798L203.723 244.318L201.803 244.462V243.874H204.551C204.467 244.174 204.371 244.462 204.275 244.678L204.923 244.858C205.103 244.474 205.307 243.874 205.439 243.358L204.935 243.214L204.791 243.25H201.851V242.638H204.587V242.002H201.851V241.258H201.059V243.25H198.611V246.394C198.611 248.014 198.503 250.222 197.459 251.806C197.651 251.89 197.975 252.094 198.107 252.238C199.211 250.582 199.379 248.122 199.379 246.394V243.874ZM200.699 248.026H201.899V248.554H200.699V248.026ZM200.699 247.006H201.899V247.51H200.699V247.006ZM203.759 247.51H202.547V247.006H203.759V247.51ZM203.759 248.554H202.547V248.026H203.759V248.554ZM200.015 249.094H204.467V246.478H200.015V249.094ZM200.315 250.186H201.203V251.35H200.315V250.186ZM202.679 250.186V251.35H201.779V250.186H202.679ZM204.179 250.186V251.35H203.243V250.186H204.179ZM204.839 251.35V249.574H199.667V251.35H198.899V252.01H205.523V251.35H204.839ZM200.447 255.438H199.499V259.29C199.499 260.682 198.671 263.958 194.651 265.494C194.855 265.674 195.143 266.046 195.263 266.226C198.647 264.834 199.739 262.182 199.967 261.018C200.207 262.17 201.371 264.918 204.839 266.226C204.971 265.986 205.235 265.602 205.427 265.41C201.299 263.946 200.447 260.658 200.447 259.29V255.438ZM203.951 257.658C203.555 258.702 202.799 260.142 202.211 261.018L202.955 261.366C203.567 260.514 204.335 259.158 204.911 258.042L203.951 257.658ZM196.475 257.682C196.283 259.014 195.875 260.31 194.915 261.03L195.683 261.558C196.751 260.742 197.147 259.29 197.363 257.862L196.475 257.682ZM205.151 270.146H200.435V269.27H199.559V270.146H194.975V270.83H205.151V270.146ZM197.447 272.054H202.667V272.93H197.447V272.054ZM203.543 273.506V271.466H196.619V273.506H203.543ZM195.491 280.226C196.091 279.698 196.643 278.822 196.955 278.018L196.139 277.79C195.815 278.582 195.251 279.41 194.663 279.878L195.491 280.226ZM198.143 278.09C198.287 278.75 198.371 279.59 198.383 280.106L199.247 279.998C199.235 279.494 199.127 278.666 198.971 278.018L198.143 278.09ZM203.747 274.094L203.555 274.142H195.383V274.802H202.259C201.635 275.042 200.927 275.27 200.255 275.426H199.619V276.65C199.619 276.806 199.559 276.854 199.331 276.866C199.103 276.89 198.299 276.89 197.363 276.854C197.471 277.082 197.615 277.358 197.675 277.598C198.791 277.598 199.499 277.61 199.931 277.49C200.363 277.358 200.483 277.154 200.483 276.674V276.002C201.779 275.69 203.279 275.174 204.335 274.586L203.747 274.094ZM200.591 278.078C200.879 278.726 201.155 279.566 201.251 280.094L202.127 279.914C202.031 279.398 201.719 278.558 201.431 277.922L200.591 278.078ZM203.063 278.03C203.627 278.714 204.263 279.638 204.539 280.226L205.427 279.914C205.115 279.314 204.455 278.414 203.891 277.754L203.063 278.03ZM198.047 283.678H195.095V284.398H198.047V283.678ZM198.383 285.25H194.531V285.982H198.383V285.25ZM198.071 286.87H195.023V287.578H198.071V286.87ZM195.023 289.174H198.071V288.454H195.023V289.174ZM197.327 290.794V292.798H195.731V290.794H197.327ZM198.071 293.518V290.062H195.011V294.082H195.731V293.518H198.071ZM200.315 287.638V288.322H203.831V287.638H202.379V286.486H203.651V285.802H202.379V284.77H201.647V285.802H200.411V286.486H201.647V287.638H200.315ZM202.895 289.93V291.646H201.167V289.93H202.895ZM203.579 292.33V289.246H200.483V292.798H201.167V292.33H203.579ZM205.139 283.762H198.983V288.034C198.983 289.798 198.911 292.138 197.975 293.794C198.179 293.89 198.539 294.142 198.671 294.286C199.667 292.534 199.799 289.894 199.799 288.034V284.542H204.323V293.086C204.323 293.29 204.263 293.338 204.083 293.338C203.879 293.35 203.255 293.362 202.619 293.326C202.727 293.566 202.847 293.974 202.883 294.202C203.771 294.202 204.371 294.19 204.695 294.046C205.031 293.902 205.139 293.614 205.139 293.086V283.762Z" fill="#3C3C3C"/>
<path d="M229.42 240.303V232.016" stroke="#3C3C3C"/>
<path d="M234.858 245.254C234.582 244.738 234.042 243.946 233.55 243.274C233.718 242.71 233.838 242.086 233.922 241.426L233.178 241.33C232.998 242.986 232.554 244.402 231.69 245.29C231.858 245.41 232.134 245.674 232.242 245.806C232.662 245.338 232.998 244.774 233.274 244.114C233.682 244.714 234.09 245.374 234.33 245.818L234.858 245.254ZM232.266 244.15C232.074 243.922 231.75 243.574 231.426 243.262C231.57 242.686 231.666 242.062 231.75 241.426L231.006 241.33C230.814 243.01 230.43 244.546 229.65 245.542C229.83 245.626 230.13 245.878 230.262 245.998C230.658 245.458 230.97 244.798 231.21 244.042C231.462 244.33 231.702 244.618 231.846 244.822L232.266 244.15ZM228.942 241.294C228.546 242.158 227.922 243.07 227.286 243.694C227.466 243.826 227.754 244.114 227.874 244.258C228.522 243.562 229.23 242.506 229.686 241.51L228.942 241.294ZM224.202 248.062C224.082 249.106 223.878 250.186 223.518 250.918C223.698 250.978 224.034 251.122 224.19 251.23C224.538 250.462 224.778 249.322 224.922 248.194L224.202 248.062ZM226.494 248.242C226.782 248.986 227.07 249.958 227.154 250.594L227.826 250.39C227.73 249.754 227.43 248.794 227.13 248.05L226.494 248.242ZM229.254 243.706C228.846 244.738 228.162 245.734 227.418 246.418C227.226 245.986 226.986 245.53 226.746 245.134L226.122 245.386C226.314 245.722 226.506 246.106 226.674 246.49L225.114 246.514C225.87 245.494 226.722 244.114 227.358 242.998L226.614 242.662C226.338 243.25 225.954 243.97 225.546 244.666C225.39 244.438 225.186 244.198 224.97 243.946C225.342 243.274 225.798 242.326 226.146 241.534L225.378 241.27C225.174 241.906 224.826 242.77 224.49 243.442C224.37 243.322 224.25 243.214 224.13 243.106L223.71 243.718C224.214 244.198 224.766 244.846 225.126 245.362C224.862 245.782 224.598 246.178 224.346 246.526H223.614L223.782 247.342C224.274 247.318 224.814 247.294 225.378 247.258V252.214H226.134V247.21L226.95 247.162C227.034 247.39 227.094 247.606 227.142 247.798L227.802 247.498C227.742 247.222 227.622 246.886 227.466 246.526C227.622 246.694 227.814 246.958 227.886 247.09C228.078 246.91 228.27 246.694 228.462 246.466V252.214H229.206V245.434C229.506 244.954 229.782 244.426 229.986 243.91L229.254 243.706ZM232.734 248.65H234.498V247.882H232.734V245.83H231.966V250.846C231.534 250.474 231.174 249.862 230.946 248.842C231.03 248.17 231.078 247.462 231.102 246.778H230.322C230.274 248.578 230.094 250.594 229.266 251.71C229.458 251.818 229.71 252.058 229.83 252.226C230.25 251.674 230.526 250.942 230.718 250.126C231.342 251.746 232.314 252.082 233.514 252.082H234.582C234.618 251.878 234.726 251.494 234.822 251.314C234.558 251.326 233.742 251.326 233.55 251.326C233.274 251.326 232.998 251.302 232.734 251.23V248.65ZM229.638 255.438H228.69V259.29C228.69 260.682 227.862 263.958 223.842 265.494C224.046 265.674 224.334 266.046 224.454 266.226C227.838 264.834 228.93 262.182 229.158 261.018C229.398 262.17 230.562 264.918 234.03 266.226C234.162 265.986 234.426 265.602 234.618 265.41C230.49 263.946 229.638 260.658 229.638 259.29V255.438ZM233.142 257.658C232.746 258.702 231.99 260.142 231.402 261.018L232.146 261.366C232.758 260.514 233.526 259.158 234.102 258.042L233.142 257.658ZM225.666 257.682C225.474 259.014 225.066 260.31 224.106 261.03L224.874 261.558C225.942 260.742 226.338 259.29 226.554 257.862L225.666 257.682Z" fill="#3C3C3C"/>
<path d="M39.8901 11.0483V232.017" stroke="#3C3C3C"/>
<path d="M33.5918 232.016H39.8903" stroke="#3C3C3C"/>
<path d="M23.7437 222.278C23.7437 223.254 23.8238 224.002 23.984 224.522C24.1441 225.037 24.4722 225.295 24.9683 225.295C25.4644 225.295 25.7886 225.037 25.941 224.522C26.0972 224.002 26.1754 223.254 26.1754 222.278C26.1754 221.254 26.0972 220.496 25.941 220.004C25.7886 219.512 25.4644 219.266 24.9683 219.266C24.4722 219.266 24.1441 219.512 23.984 220.004C23.8238 220.496 23.7437 221.254 23.7437 222.278ZM24.9683 217.889C26.0504 217.889 26.8082 218.27 27.2418 219.031C27.6793 219.793 27.898 220.875 27.898 222.278C27.898 223.68 27.6793 224.76 27.2418 225.518C26.8082 226.276 26.0504 226.655 24.9683 226.655C23.8863 226.655 23.1265 226.276 22.689 225.518C22.2554 224.76 22.0386 223.68 22.0386 222.278C22.0386 220.875 22.2554 219.793 22.689 219.031C23.1265 218.27 23.8863 217.889 24.9683 217.889Z" fill="#3C3C3C"/>
<path d="M33.5918 176.774H39.8903" stroke="#3C3C3C"/>
<path d="M2.23543 165.293V164.156C2.76278 164.133 3.13192 164.097 3.34286 164.051C3.67879 163.976 3.95223 163.828 4.16317 163.605C4.3077 163.453 4.41707 163.25 4.49129 162.996C4.53426 162.844 4.55575 162.73 4.55575 162.656H5.94442V171.152H4.23348V165.293H2.23543ZM14.4112 164.074C14.1612 164.32 13.8136 164.76 13.3682 165.392C12.9229 166.021 12.5499 166.672 12.2491 167.344C12.0108 167.871 11.796 168.515 11.6046 169.277C11.4132 170.039 11.3175 170.664 11.3175 171.152H9.58309C9.63387 169.629 10.1339 168.045 11.0831 166.4C11.6964 165.381 12.21 164.67 12.6241 164.267H8.38778L8.41121 162.767H14.4112V164.074ZM16.7432 168.879C16.8097 169.242 16.9366 169.523 17.1241 169.722C17.3116 169.918 17.585 170.015 17.9444 170.015C18.3585 170.015 18.6729 169.871 18.8878 169.582C19.1065 169.289 19.2159 168.922 19.2159 168.48C19.2159 168.047 19.1143 167.681 18.9112 167.385C18.7081 167.084 18.3917 166.933 17.962 166.933C17.7589 166.933 17.5831 166.959 17.4347 167.01C17.1729 167.103 16.9757 167.277 16.8429 167.531L15.3429 167.461L15.9405 162.767H20.6222V164.185H17.1475L16.8429 166.043C17.1007 165.875 17.3018 165.763 17.4464 165.709C17.6886 165.619 17.9835 165.574 18.3311 165.574C19.0343 165.574 19.6475 165.81 20.171 166.283C20.6944 166.756 20.9561 167.443 20.9561 168.345C20.9561 169.131 20.7042 169.832 20.2003 170.449C19.6964 171.066 18.9425 171.375 17.9386 171.375C17.13 171.375 16.4659 171.158 15.9464 170.724C15.4268 170.291 15.1378 169.676 15.0792 168.879H16.7432ZM23.5225 166.986C23.5225 167.963 23.6026 168.711 23.7628 169.23C23.9229 169.746 24.2511 170.004 24.7472 170.004C25.2432 170.004 25.5675 169.746 25.7198 169.23C25.8761 168.711 25.9542 167.963 25.9542 166.986C25.9542 165.963 25.8761 165.205 25.7198 164.713C25.5675 164.22 25.2432 163.974 24.7472 163.974C24.2511 163.974 23.9229 164.22 23.7628 164.713C23.6026 165.205 23.5225 165.963 23.5225 166.986ZM24.7472 162.597C25.8292 162.597 26.587 162.978 27.0206 163.74C27.4581 164.502 27.6768 165.584 27.6768 166.986C27.6768 168.388 27.4581 169.469 27.0206 170.226C26.587 170.984 25.8292 171.363 24.7472 171.363C23.6651 171.363 22.9054 170.984 22.4679 170.226C22.0343 169.469 21.8175 168.388 21.8175 166.986C21.8175 165.584 22.0343 164.502 22.4679 163.74C22.9054 162.978 23.6651 162.597 24.7472 162.597Z" fill="#3C3C3C"/>
<path d="M33.5918 121.532H39.8903" stroke="#3C3C3C"/>
<path d="M3.58138 113.352C3.58138 113.692 3.63606 113.973 3.74544 114.196C3.94856 114.606 4.31771 114.811 4.85286 114.811C5.18099 114.811 5.46614 114.7 5.70833 114.477C5.95442 114.251 6.07747 113.927 6.07747 113.505C6.07747 112.946 5.85091 112.573 5.39778 112.385C5.13997 112.28 4.73372 112.227 4.17903 112.227V111.032C4.722 111.024 5.10091 110.971 5.31575 110.874C5.68685 110.71 5.87239 110.378 5.87239 109.878C5.87239 109.553 5.77669 109.29 5.58528 109.087C5.39778 108.884 5.13216 108.782 4.78841 108.782C4.39388 108.782 4.10286 108.907 3.91536 109.157C3.73177 109.407 3.64388 109.741 3.65169 110.159H2.0931C2.10872 109.737 2.18099 109.337 2.30989 108.958C2.44661 108.626 2.66146 108.319 2.95442 108.038C3.17317 107.839 3.43294 107.686 3.73372 107.581C4.0345 107.475 4.40364 107.423 4.84114 107.423C5.65364 107.423 6.30794 107.634 6.80403 108.055C7.30403 108.473 7.55403 109.036 7.55403 109.743C7.55403 110.243 7.4056 110.665 7.10872 111.009C6.92122 111.223 6.72591 111.37 6.52278 111.448C6.67513 111.448 6.89388 111.579 7.17903 111.841C7.60481 112.235 7.81771 112.774 7.81771 113.458C7.81771 114.177 7.56771 114.809 7.06771 115.356C6.57161 115.899 5.83528 116.171 4.85872 116.171C3.6556 116.171 2.81966 115.778 2.35091 114.993C2.10481 114.575 1.9681 114.028 1.94075 113.352H3.58138ZM10.2845 113.686C10.3509 114.05 10.4779 114.331 10.6654 114.53C10.8529 114.725 11.1263 114.823 11.4857 114.823C11.8997 114.823 12.2142 114.678 12.429 114.389C12.6478 114.096 12.7572 113.729 12.7572 113.288C12.7572 112.854 12.6556 112.489 12.4525 112.192C12.2493 111.891 11.9329 111.741 11.5033 111.741C11.3001 111.741 11.1243 111.766 10.9759 111.817C10.7142 111.911 10.5169 112.085 10.3841 112.339L8.88411 112.268L9.48177 107.575H14.1634V108.993H10.6888L10.3841 110.85C10.6419 110.682 10.8431 110.571 10.9876 110.516C11.2298 110.427 11.5247 110.382 11.8724 110.382C12.5755 110.382 13.1888 110.618 13.7122 111.091C14.2357 111.563 14.4974 112.251 14.4974 113.153C14.4974 113.938 14.2454 114.639 13.7415 115.257C13.2376 115.874 12.4837 116.182 11.4798 116.182C10.6712 116.182 10.0072 115.966 9.48763 115.532C8.9681 115.098 8.67903 114.483 8.62044 113.686H10.2845ZM17.0638 111.794C17.0638 112.77 17.1439 113.518 17.304 114.038C17.4642 114.553 17.7923 114.811 18.2884 114.811C18.7845 114.811 19.1087 114.553 19.2611 114.038C19.4173 113.518 19.4954 112.77 19.4954 111.794C19.4954 110.77 19.4173 110.012 19.2611 109.52C19.1087 109.028 18.7845 108.782 18.2884 108.782C17.7923 108.782 17.4642 109.028 17.304 109.52C17.1439 110.012 17.0638 110.77 17.0638 111.794ZM18.2884 107.405C19.3704 107.405 20.1283 107.786 20.5618 108.548C20.9993 109.309 21.2181 110.391 21.2181 111.794C21.2181 113.196 20.9993 114.276 20.5618 115.034C20.1283 115.792 19.3704 116.171 18.2884 116.171C17.2064 116.171 16.4466 115.792 16.0091 115.034C15.5755 114.276 15.3587 113.196 15.3587 111.794C15.3587 110.391 15.5755 109.309 16.0091 108.548C16.4466 107.786 17.2064 107.405 18.2884 107.405ZM23.7435 111.794C23.7435 112.77 23.8236 113.518 23.9837 114.038C24.1439 114.553 24.472 114.811 24.9681 114.811C25.4642 114.811 25.7884 114.553 25.9408 114.038C26.097 113.518 26.1751 112.77 26.1751 111.794C26.1751 110.77 26.097 110.012 25.9408 109.52C25.7884 109.028 25.4642 108.782 24.9681 108.782C24.472 108.782 24.1439 109.028 23.9837 109.52C23.8236 110.012 23.7435 110.77 23.7435 111.794ZM24.9681 107.405C26.0501 107.405 26.8079 107.786 27.2415 108.548C27.679 109.309 27.8978 110.391 27.8978 111.794C27.8978 113.196 27.679 114.276 27.2415 115.034C26.8079 115.792 26.0501 116.171 24.9681 116.171C23.8861 116.171 23.1263 115.792 22.6888 115.034C22.2552 114.276 22.0384 113.196 22.0384 111.794C22.0384 110.391 22.2552 109.309 22.6888 108.548C23.1263 107.786 23.8861 107.405 24.9681 107.405Z" fill="#3C3C3C"/>
<path d="M33.5918 66.2903H39.8903" stroke="#3C3C3C"/>
<path d="M3.60485 58.4443C3.67126 58.8076 3.79821 59.0889 3.98571 59.2881C4.17321 59.4834 4.44665 59.5811 4.80602 59.5811C5.22008 59.5811 5.53454 59.4365 5.74938 59.1475C5.96813 58.8545 6.07751 58.4873 6.07751 58.0459C6.07751 57.6123 5.97594 57.2471 5.77282 56.9502C5.56969 56.6494 5.25329 56.499 4.8236 56.499C4.62047 56.499 4.44469 56.5244 4.29626 56.5752C4.03454 56.6689 3.83727 56.8428 3.70446 57.0967L2.20446 57.0264L2.80211 52.333H7.48376V53.751H4.00915L3.70446 55.6084C3.96227 55.4404 4.16344 55.3291 4.30797 55.2744C4.55016 55.1846 4.84508 55.1396 5.19274 55.1396C5.89586 55.1396 6.50915 55.376 7.03258 55.8486C7.55602 56.3213 7.81774 57.0088 7.81774 57.9111C7.81774 58.6963 7.56579 59.3975 7.06188 60.0146C6.55797 60.6318 5.80407 60.9404 4.80016 60.9404C3.99157 60.9404 3.32751 60.7236 2.80797 60.29C2.28844 59.8564 1.99938 59.2412 1.94079 58.4443H3.60485ZM8.67907 60.7178C8.69469 60.1084 8.82555 59.5518 9.07165 59.0479C9.30993 58.4814 9.87243 57.8818 10.7591 57.249C11.5287 56.6982 12.0267 56.3037 12.2533 56.0654C12.6009 55.6943 12.7748 55.2881 12.7748 54.8467C12.7748 54.4873 12.6752 54.1885 12.4759 53.9502C12.2767 53.7119 11.9916 53.5928 11.6205 53.5928C11.1127 53.5928 10.767 53.7822 10.5834 54.1611C10.4779 54.3799 10.4154 54.7275 10.3959 55.2041H8.77282C8.80016 54.4814 8.93102 53.8975 9.1654 53.4521C9.61071 52.6045 10.4017 52.1807 11.5384 52.1807C12.4369 52.1807 13.1517 52.4307 13.683 52.9307C14.2142 53.4268 14.4798 54.085 14.4798 54.9053C14.4798 55.5342 14.2923 56.0928 13.9173 56.5811C13.6713 56.9053 13.267 57.2666 12.7045 57.665L12.0365 58.1396C11.6185 58.4365 11.3314 58.6514 11.1752 58.7842C11.0228 58.917 10.8939 59.0713 10.7884 59.2471H14.4974V60.7178H8.67907ZM16.9642 58.4443C17.0306 58.8076 17.1576 59.0889 17.3451 59.2881C17.5326 59.4834 17.806 59.5811 18.1654 59.5811C18.5795 59.5811 18.8939 59.4365 19.1088 59.1475C19.3275 58.8545 19.4369 58.4873 19.4369 58.0459C19.4369 57.6123 19.3353 57.2471 19.1322 56.9502C18.9291 56.6494 18.6127 56.499 18.183 56.499C17.9798 56.499 17.8041 56.5244 17.6556 56.5752C17.3939 56.6689 17.1966 56.8428 17.0638 57.0967L15.5638 57.0264L16.1615 52.333H20.8431V53.751H17.3685L17.0638 55.6084C17.3216 55.4404 17.5228 55.3291 17.6673 55.2744C17.9095 55.1846 18.2045 55.1396 18.5521 55.1396C19.2552 55.1396 19.8685 55.376 20.392 55.8486C20.9154 56.3213 21.1771 57.0088 21.1771 57.9111C21.1771 58.6963 20.9252 59.3975 20.4213 60.0146C19.9173 60.6318 19.1634 60.9404 18.1595 60.9404C17.3509 60.9404 16.6869 60.7236 16.1673 60.29C15.6478 59.8564 15.3588 59.2412 15.3002 58.4443H16.9642ZM23.7435 56.5518C23.7435 57.5283 23.8236 58.2764 23.9838 58.7959C24.1439 59.3115 24.472 59.5693 24.9681 59.5693C25.4642 59.5693 25.7884 59.3115 25.9408 58.7959C26.097 58.2764 26.1752 57.5283 26.1752 56.5518C26.1752 55.5283 26.097 54.7705 25.9408 54.2783C25.7884 53.7861 25.4642 53.54 24.9681 53.54C24.472 53.54 24.1439 53.7861 23.9838 54.2783C23.8236 54.7705 23.7435 55.5283 23.7435 56.5518ZM24.9681 52.1631C26.0502 52.1631 26.808 52.5439 27.2416 53.3057C27.6791 54.0674 27.8978 55.1494 27.8978 56.5518C27.8978 57.9541 27.6791 59.0342 27.2416 59.792C26.808 60.5498 26.0502 60.9287 24.9681 60.9287C23.8861 60.9287 23.1263 60.5498 22.6888 59.792C22.2552 59.0342 22.0384 57.9541 22.0384 56.5518C22.0384 55.1494 22.2552 54.0674 22.6888 53.3057C23.1263 52.5439 23.8861 52.1631 24.9681 52.1631Z" fill="#3C3C3C"/>
<path d="M33.5918 11.0483H39.8903" stroke="#3C3C3C"/>
<path d="M7.95251 3.92188C7.70251 4.16797 7.35485 4.60742 6.90954 5.24023C6.46422 5.86914 6.09118 6.51953 5.7904 7.19141C5.55211 7.71875 5.33727 8.36328 5.14586 9.125C4.95446 9.88672 4.85876 10.5117 4.85876 11H3.12438C3.17516 9.47656 3.67516 7.89258 4.62438 6.24805C5.23766 5.22852 5.75133 4.51758 6.1654 4.11523H1.92907L1.95251 2.61523H7.95251V3.92188ZM10.3841 6.83398C10.3841 7.81055 10.4642 8.55859 10.6244 9.07812C10.7845 9.59375 11.1127 9.85156 11.6088 9.85156C12.1048 9.85156 12.4291 9.59375 12.5814 9.07812C12.7377 8.55859 12.8158 7.81055 12.8158 6.83398C12.8158 5.81055 12.7377 5.05273 12.5814 4.56055C12.4291 4.06836 12.1048 3.82227 11.6088 3.82227C11.1127 3.82227 10.7845 4.06836 10.6244 4.56055C10.4642 5.05273 10.3841 5.81055 10.3841 6.83398ZM11.6088 2.44531C12.6908 2.44531 13.4486 2.82617 13.8822 3.58789C14.3197 4.34961 14.5384 5.43164 14.5384 6.83398C14.5384 8.23633 14.3197 9.31641 13.8822 10.0742C13.4486 10.832 12.6908 11.2109 11.6088 11.2109C10.5267 11.2109 9.76696 10.832 9.32946 10.0742C8.89586 9.31641 8.67907 8.23633 8.67907 6.83398C8.67907 5.43164 8.89586 4.34961 9.32946 3.58789C9.76696 2.82617 10.5267 2.44531 11.6088 2.44531ZM17.0638 6.83398C17.0638 7.81055 17.1439 8.55859 17.3041 9.07812C17.4642 9.59375 17.7923 9.85156 18.2884 9.85156C18.7845 9.85156 19.1088 9.59375 19.2611 9.07812C19.4173 8.55859 19.4955 7.81055 19.4955 6.83398C19.4955 5.81055 19.4173 5.05273 19.2611 4.56055C19.1088 4.06836 18.7845 3.82227 18.2884 3.82227C17.7923 3.82227 17.4642 4.06836 17.3041 4.56055C17.1439 5.05273 17.0638 5.81055 17.0638 6.83398ZM18.2884 2.44531C19.3705 2.44531 20.1283 2.82617 20.5619 3.58789C20.9994 4.34961 21.2181 5.43164 21.2181 6.83398C21.2181 8.23633 20.9994 9.31641 20.5619 10.0742C20.1283 10.832 19.3705 11.2109 18.2884 11.2109C17.2064 11.2109 16.4466 10.832 16.0091 10.0742C15.5756 9.31641 15.3588 8.23633 15.3588 6.83398C15.3588 5.43164 15.5756 4.34961 16.0091 3.58789C16.4466 2.82617 17.2064 2.44531 18.2884 2.44531ZM23.7435 6.83398C23.7435 7.81055 23.8236 8.55859 23.9838 9.07812C24.1439 9.59375 24.472 9.85156 24.9681 9.85156C25.4642 9.85156 25.7884 9.59375 25.9408 9.07812C26.097 8.55859 26.1752 7.81055 26.1752 6.83398C26.1752 5.81055 26.097 5.05273 25.9408 4.56055C25.7884 4.06836 25.4642 3.82227 24.9681 3.82227C24.472 3.82227 24.1439 4.06836 23.9838 4.56055C23.8236 5.05273 23.7435 5.81055 23.7435 6.83398ZM24.9681 2.44531C26.0502 2.44531 26.808 2.82617 27.2416 3.58789C27.6791 4.34961 27.8978 5.43164 27.8978 6.83398C27.8978 8.23633 27.6791 9.31641 27.2416 10.0742C26.808 10.832 26.0502 11.2109 24.9681 11.2109C23.8861 11.2109 23.1263 10.832 22.6888 10.0742C22.2552 9.31641 22.0384 8.23633 22.0384 6.83398C22.0384 5.43164 22.2552 4.34961 22.6888 3.58789C23.1263 2.82617 23.8861 2.44531 24.9681 2.44531Z" fill="#3C3C3C"/>
<path d="M39.8906 232.017H244" stroke="#CCCCCC"/>
<path d="M39.8906 175.432H244" stroke="#CCCCCC"/>
<path d="M39.8906 118.847H244" stroke="#CCCCCC"/>
<path d="M39.8906 62.2625H244" stroke="#CCCCCC"/>
<path d="M39.8909 5.67749H244" stroke="#CCCCCC"/>
<path d="M54.4697 5.67749V232.016" stroke="#CCCCCC"/>
<path d="M83.6282 5.67749V232.016" stroke="#CCCCCC"/>
<path d="M112.787 5.67749V232.016" stroke="#CCCCCC"/>
<path d="M141.945 5.67749V232.016" stroke="#CCCCCC"/>
<path d="M171.104 5.67749V232.016" stroke="#CCCCCC"/>
<path d="M200.262 5.67749V232.016" stroke="#CCCCCC"/>
<path d="M229.421 5.67749V232.016" stroke="#CCCCCC"/>
<path d="M39.8909 5.67749V232.016" stroke="#CCCCCC"/>
<path d="M244 5.67749V232.016" stroke="#CCCCCC"/>
<path d="M42.8062 6.89355H66.0159V232.016H42.8062V6.89355Z" fill="#00A29A"/>
<path d="M71.9619 230.153H95.3294V232.274H71.9619V230.153Z" fill="#00A29A"/>
<path d="M101.123 231.213H124.333V232.016H101.123V231.213Z" fill="#00A29A"/>
<path d="M130.211 230.153H153.579V232.274H130.211V230.153Z" fill="#00A29A"/>
<path d="M159.336 125.152H182.703V232.274H159.336V125.152Z" fill="#00A29A"/>
<path d="M188.599 124.092H211.808V232.016H188.599V124.092Z" fill="#00A29A"/>
<path d="M217.757 228.562H240.967V232.016H217.757V228.562Z" fill="#00A29A"/>
</svg>
